<svg width="237" height="260" viewBox="0 0 237 260" fill="none" xmlns="http://www.w3.org/2000/svg">
<g clip-path="url(#clip0_2_20148)">
<path d="M59.5243 35.1993H81.8811V30.1982H59.3737C56.6987 30.1982 54.5199 32.3737 54.5199 35.0488V109.648L59.5243 114.062V35.1993Z" fill="#1E3AE5"/>
<path d="M177.477 35.1993V114.067L182.482 109.656V35.0488C182.482 32.3737 180.301 30.1982 177.628 30.1982H152.618V35.1993H177.477Z" fill="#1E3AE5"/>
<path d="M166.914 101.401H97.5129V106.406H166.914V101.401Z" fill="#1E3AE5"/>
<path d="M166.914 80.3135H97.5129V85.3179H166.914V80.3135Z" fill="#1E3AE5"/>
<path d="M166.914 59.2256H97.5129V64.23H166.914V59.2256Z" fill="#1E3AE5"/>
<path d="M154.34 122.488H97.5129V127.492H154.34V122.488Z" fill="#1E3AE5"/>
<path d="M78.9446 115.824L73.6226 110.502L70.0856 114.039L75.4076 119.361L78.9446 122.898L82.4816 119.361L92.3084 109.534L88.7714 105.997L78.9446 115.824Z" fill="#1E3AE5"/>
<path d="M78.9446 91.0485L73.6226 85.7265L70.0856 89.2634L75.4076 94.5855L78.9446 98.1225L82.4816 94.5855L92.3084 84.7587L88.7714 81.2217L78.9446 91.0485Z" fill="#1E3AE5"/>
<path d="M78.9446 66.2746L73.6226 60.9525L70.0856 64.4895L75.4076 69.8099V69.8115L78.9446 73.3469L82.4816 69.8115L92.3084 59.9847L88.7714 56.4478L78.9446 66.2746Z" fill="#1E3AE5"/>
<path d="M81.8811 40.237C81.8811 42.151 83.4395 43.7094 85.3536 43.7094H149.145C151.061 43.7094 152.618 42.151 152.618 40.237V18.8215C152.618 16.9074 151.059 15.349 149.145 15.349H134.033C133.27 6.75799 126.034 0 117.249 0C108.465 0 101.234 6.75303 100.466 15.349H85.3536C83.4395 15.349 81.8811 16.9074 81.8811 18.8215V40.237ZM101.932 20.3534C102.876 20.3534 103.758 19.9812 104.417 19.3029C105.055 18.6461 105.406 17.7776 105.404 16.8495C105.404 10.3181 110.718 5.00439 117.249 5.00439C123.781 5.00439 129.094 10.3181 129.094 16.8578C129.094 17.7776 129.443 18.6461 130.082 19.3029C130.74 19.9812 131.622 20.3534 132.567 20.3534H147.613V38.705H86.8855V20.3534H101.932Z" fill="#1E3AE5"/>
<path d="M117.249 18.5187C118.723 18.5187 119.919 17.3243 119.919 15.8503C119.919 14.3763 118.725 13.1802 117.249 13.1802C115.774 13.1802 114.581 14.3746 114.581 15.8503C114.581 17.326 115.775 18.5187 117.249 18.5187Z" fill="#1E3AE5"/>
<path d="M235.841 182.357C235.103 181.258 233.665 180.881 232.483 181.468L203.005 196.098C200.964 197.109 198.461 196.458 197.171 194.589L182.482 173.245L178.511 167.476L177.476 165.971L175.011 162.396L166.304 149.745L162.674 144.471L160.565 141.407C159.248 139.496 159.567 136.892 161.316 135.354L177.476 121.101L182.48 116.688L184.207 115.166L184.229 115.195L186.472 113.225C187.475 112.34 187.666 110.853 186.92 109.746C186.024 108.413 184.158 108.174 182.955 109.24L182.482 109.658L177.477 114.069L157.825 131.398C154.087 134.702 153.398 140.288 156.229 144.401L156.279 144.472H105.191L104.486 144.376L94.3995 142.985L82.192 141.304C83.1102 137.787 82.0365 133.923 79.1778 131.398L59.5226 114.064L54.5182 109.65L54.0649 109.251C52.8539 108.186 50.9845 108.426 50.0779 109.766C49.7686 110.222 49.6213 110.739 49.6213 111.258C49.6213 112.004 49.9307 112.742 50.5312 113.266L52.7563 115.224L52.7944 115.166L54.5165 116.683L59.5209 121.096L75.6888 135.354C77.4325 136.892 77.7518 139.494 76.4349 141.407L59.5209 165.984L54.5165 173.256L39.8359 194.589C38.5488 196.458 36.0375 197.109 34.001 196.098L4.49412 181.48C3.31623 180.901 1.89019 181.278 1.15731 182.368C0.26893 183.68 0.747035 185.479 2.16812 186.183L31.6585 200.821C33.0465 201.509 34.5387 201.84 36.0143 201.84C38.5339 201.84 41.0154 200.872 42.8716 199.102L52.2832 209.9C51.3021 211.963 50.958 214.259 51.3154 216.56C51.7802 219.603 53.4032 222.286 55.8847 224.111L56.4207 224.505C58.4158 225.967 60.7766 226.74 63.2448 226.74C64.2755 226.74 65.2946 226.597 66.2706 226.329C66.451 229.77 68.107 233.099 71.0914 235.293C73.1411 236.798 75.5681 237.594 78.1042 237.594C79.3201 237.594 80.5096 237.405 81.6378 237.049C81.7421 240.583 83.4063 244.032 86.4669 246.276C88.5166 247.784 90.9435 248.577 93.4846 248.577C94.6923 248.577 95.8817 248.388 97.01 248.036C96.9852 251.717 98.6577 255.355 101.844 257.699C103.894 259.208 106.321 260 108.862 260C111.792 260 114.609 258.902 116.76 256.986L117.582 257.59C119.686 259.137 122.176 259.954 124.788 259.954C128.39 259.954 131.738 258.369 133.968 255.611C135.837 253.305 136.756 250.476 136.605 247.55L138.819 249.181C140.873 250.686 143.295 251.482 145.84 251.482C149.6 251.482 153.18 249.67 155.405 246.645C157.053 244.401 157.845 241.71 157.69 238.968L159.031 239.953C161.081 241.458 163.505 242.254 166.049 242.254C169.809 242.254 173.389 240.442 175.615 237.417C177.199 235.258 177.995 232.675 177.912 230.035C179.544 230.849 181.329 231.271 183.186 231.271C186.947 231.271 190.522 229.459 192.749 226.433C194.626 223.876 195.394 220.749 194.916 217.618C194.438 214.481 192.77 211.723 190.212 209.849L174.971 198.695L168.134 193.689L154.308 183.569L150.712 180.932L147.107 178.3H144.199C141.968 178.3 139.676 177.773 137.629 176.598C134.019 174.54 131.185 170.495 130.838 163.855C130.813 163.33 130.381 162.92 129.857 162.92H102.668C101.775 162.92 101.053 163.641 101.053 164.535V170.244C101.053 173.504 99.733 176.452 97.5989 178.59C95.4615 180.724 92.5135 182.047 89.2528 182.047C88.8756 182.047 88.5282 181.892 88.28 181.64C88.0286 181.389 87.8731 181.05 87.8731 180.664V165.092C87.8731 164.212 88.242 163.373 88.8872 162.783L102.076 150.701C102.415 150.387 102.813 150.143 103.24 149.98C103.651 149.824 104.091 149.741 104.536 149.741H159.907L172.691 168.316L174.577 171.058L176.46 173.796L177.474 175.271L182.478 182.54L192.825 197.573C194.711 200.32 197.817 201.84 200.99 201.84C202.466 201.84 203.953 201.509 205.341 200.821L234.823 186.192C236.248 185.479 236.726 183.677 235.838 182.357H235.841ZM68.2939 218.918C67.0664 220.587 65.1672 221.47 63.2465 221.47C61.9594 221.47 60.6558 221.072 59.5457 220.255L59.0048 219.861C56.2255 217.819 55.6216 213.9 57.6714 211.113C58.8956 209.445 60.7948 208.565 62.7188 208.565C64.0058 208.565 65.3012 208.959 66.4162 209.781L66.9522 210.171C69.7398 212.221 70.3354 216.132 68.2939 218.919V218.918ZM83.4229 229.633C82.1325 231.39 80.1407 232.32 78.1075 232.32C76.7575 232.32 75.391 231.909 74.2131 231.041C71.2833 228.89 70.6497 224.766 72.8053 221.831L78.2679 214.395C79.5583 212.638 81.5584 211.708 83.5834 211.708C84.9366 211.708 86.3047 212.118 87.4826 212.987C89.2395 214.277 90.1693 216.277 90.1693 218.302C90.1693 219.657 89.7541 221.022 88.8905 222.202L83.4245 229.635L83.4229 229.633ZM100.555 238.236L98.8033 240.616C98.3087 241.283 97.7181 241.832 97.0596 242.256C95.986 242.952 94.7419 243.308 93.4879 243.308C92.133 243.308 90.7682 242.893 89.5886 242.029C86.6588 239.875 86.0252 235.749 88.1841 232.816L96.4293 221.59C97.7197 219.833 99.7198 218.903 101.745 218.903C103.098 218.903 104.464 219.318 105.644 220.182C106.44 220.769 107.068 221.502 107.518 222.319C108.453 224.03 108.6 226.091 107.863 227.932C107.661 228.44 107.393 228.93 107.054 229.391L100.557 238.236H100.555ZM114.778 251.227L114.179 252.041C112.888 253.798 110.892 254.733 108.863 254.733C107.51 254.733 106.144 254.317 104.964 253.454C102.034 251.3 101.401 247.174 103.56 244.241L104.155 243.427C105.447 241.67 107.446 240.735 109.471 240.735C110.824 240.735 112.19 241.151 113.37 242.014C116.3 244.168 116.933 248.294 114.778 251.227ZM85.3287 158.895C83.5933 160.488 82.604 162.743 82.604 165.095V180.668C82.604 184.34 85.5851 187.32 89.2528 187.32C93.8138 187.32 98.1019 185.546 101.326 182.324C104.554 179.091 106.327 174.808 106.327 170.247V168.197H126.08C127.091 173.19 129.442 176.899 132.464 179.419C133.965 180.668 135.637 181.632 137.389 182.307C139.581 183.162 141.899 183.573 144.197 183.573H145.383L159.208 193.692L166.046 198.698L187.089 214.099C190.027 216.258 190.652 220.382 188.502 223.312C187.211 225.069 185.211 225.998 183.186 225.998C181.828 225.998 180.462 225.588 179.287 224.72L149.19 202.608C148.67 202.225 148.071 202.045 147.471 202.045C146.574 202.045 145.694 202.455 145.123 203.231C144.172 204.522 144.453 206.346 145.744 207.298L169.957 225.08C172.891 227.239 173.52 231.363 171.365 234.293C170.074 236.05 168.074 236.98 166.049 236.98C164.691 236.98 163.329 236.57 162.155 235.701L138.106 218.036C137.553 217.629 136.906 217.432 136.269 217.432C135.31 217.432 134.367 217.869 133.758 218.698C132.739 220.086 133.037 222.03 134.42 223.049L149.746 234.303C152.68 236.462 153.309 240.586 151.153 243.516C149.863 245.273 147.863 246.203 145.838 246.203C144.48 246.203 143.113 245.793 141.944 244.924L126.598 233.651C126.049 233.249 125.407 233.056 124.775 233.056C123.824 233.056 122.889 233.488 122.288 234.31C121.881 234.862 121.685 235.501 121.685 236.138C121.685 237.089 122.125 238.024 122.947 238.624L128.656 242.82C131.673 245.042 132.257 249.346 129.872 252.289C128.593 253.869 126.702 254.675 124.786 254.675C123.36 254.675 121.923 254.23 120.704 253.333L119.982 252.805C122.649 247.708 121.264 241.27 116.487 237.761C114.442 236.255 112.01 235.46 109.469 235.46C109.351 235.46 109.239 235.465 109.125 235.468L111.297 232.508C113.333 229.737 113.984 226.367 113.38 223.236C113.003 221.279 112.134 219.409 110.802 217.836C110.215 217.131 109.532 216.491 108.761 215.923C106.711 214.418 104.284 213.622 101.743 213.622C99.3658 213.622 97.0646 214.347 95.1323 215.642C94.5169 212.964 92.9817 210.482 90.5961 208.73C88.5497 207.225 86.1195 206.429 83.5784 206.429C79.8396 206.429 76.2844 208.219 74.0543 211.217C73.3033 209.162 71.9583 207.306 70.0674 205.918L69.5347 205.524C67.5428 204.057 65.1837 203.286 62.7138 203.286C60.2439 203.286 57.6333 204.171 55.6332 205.726L46.0959 194.776L54.5132 182.549L59.5176 175.276L79.5004 146.247L96.5534 148.598L85.3237 158.89L85.3287 158.895Z" fill="#1E3AE5"/>
<path d="M34.7405 189.1C36.1368 190.054 38.0608 189.692 39.0154 188.296L39.194 188.033C40.1486 186.636 39.7863 184.712 38.39 183.758C36.9938 182.803 35.0698 183.166 34.1152 184.562L33.9349 184.825C32.9803 186.221 33.3426 188.145 34.7389 189.1H34.7405Z" fill="#1E3AE5"/>
<path d="M40.4513 181.192C41.8476 182.147 43.7716 181.784 44.7261 180.388L44.9048 180.125C45.8593 178.729 45.497 176.805 44.1008 175.85C42.7045 174.896 40.7805 175.258 39.826 176.656L39.6473 176.919C38.6927 178.315 39.055 180.239 40.4513 181.194V181.192Z" fill="#1E3AE5"/>
<path d="M197.808 188.033L197.986 188.296C198.941 189.692 200.863 190.054 202.261 189.1C203.657 188.145 204.02 186.223 203.065 184.825L202.886 184.562C201.932 183.166 200.01 182.803 198.612 183.758C197.215 184.712 196.853 186.635 197.806 188.033H197.808Z" fill="#1E3AE5"/>
<path d="M192.275 180.388C193.23 181.784 195.152 182.147 196.55 181.192C197.947 180.237 198.309 178.315 197.354 176.917L197.176 176.654C196.221 175.258 194.299 174.896 192.901 175.848C191.503 176.801 191.142 178.725 192.097 180.123L192.275 180.386V180.388Z" fill="#1E3AE5"/>
</g>
<defs>
<clipPath id="clip0_2_20148">
<rect width="235.579" height="260" fill="white" transform="translate(0.710693)"/>
</clipPath>
</defs>
</svg>
