<svg width="273" height="260" viewBox="0 0 273 260" fill="none" xmlns="http://www.w3.org/2000/svg">
<g clip-path="url(#clip0_2_20006)">
<path d="M201.886 30.8577C201.886 60.7619 196.757 81.7413 184.746 101.003C178.725 110.653 171.196 119.317 162.289 126.852H152.506C163.529 118.71 172.628 108.948 179.59 97.7888C190.597 80.1377 195.494 60.8055 195.792 33.5535C170.008 30.3527 150.57 21.8119 136.498 7.47125C122.427 21.8103 102.988 30.3527 77.2046 33.5535C77.5031 60.8055 82.3995 80.1377 93.407 97.7888C100.335 108.898 109.387 118.625 120.344 126.741L108.719 125.136C100.673 118.012 93.8168 109.931 88.2525 101.004C76.2366 81.7429 71.1128 60.7651 71.1128 30.8593C71.1128 29.3251 72.2615 28.0296 73.786 27.8473L75.9382 27.5843C101.878 24.4545 120.953 15.7604 134.24 1.00674C134.817 0.369489 135.637 0.00488281 136.498 0.00488281C137.36 0.00488281 138.179 0.369489 138.757 1.00674C152.044 15.762 171.118 24.4561 197.059 27.5843L199.211 27.8473C200.735 28.0296 201.884 29.3267 201.884 30.8593L201.886 30.8577Z" fill="#1E3AE5"/>
<path d="M271.737 170.513C270.886 169.247 269.23 168.811 267.868 169.49L233.892 186.351C231.543 187.516 228.657 186.766 227.167 184.609L205.662 153.362L201.632 147.504L191.596 132.927L187.414 126.851L184.983 123.316C183.463 121.114 183.834 118.112 185.844 116.339L212.23 93.0715L212.256 93.1069L214.839 90.8338C215.994 89.8158 216.216 88.0992 215.355 86.8231C214.322 85.2889 212.175 85.0162 210.788 86.2407L181.824 111.781C177.515 115.583 176.719 122.024 179.982 126.764L180.043 126.849H121.159L120.349 126.738L108.724 125.133L94.6572 123.193C95.7155 119.142 94.4797 114.686 91.1837 111.781L62.2411 86.2552C60.8439 85.0243 58.687 85.3034 57.6432 86.8473C57.2882 87.3733 57.1172 87.9718 57.1172 88.5687C57.1172 89.4302 57.477 90.2804 58.1659 90.8822L60.7326 93.136L60.7778 93.0698L87.1634 116.337C89.1736 118.11 89.543 121.112 88.0249 123.314L45.8402 184.609C44.356 186.766 41.4649 187.516 39.116 186.351L5.10915 169.505C3.75236 168.837 2.10679 169.273 1.26142 170.528C0.238582 172.041 0.790332 174.113 2.42622 174.922L36.4169 191.794C38.0173 192.59 39.7339 192.969 41.4343 192.969C44.3415 192.969 47.197 191.854 49.3379 189.815L60.1841 202.261C59.0548 204.636 58.6595 207.285 59.0709 209.938C59.6082 213.446 61.4764 216.536 64.3368 218.636L64.9546 219.091C67.2536 220.777 69.972 221.669 72.8179 221.669C74.0085 221.669 75.183 221.502 76.3058 221.194C76.514 225.157 78.4225 228.997 81.8605 231.524C84.2256 233.259 87.0198 234.177 89.9463 234.177C91.3435 234.177 92.7164 233.96 94.0167 233.55C94.1377 237.62 96.0575 241.595 99.581 244.183C101.946 245.921 104.74 246.837 107.667 246.837C109.059 246.837 110.432 246.619 111.732 246.214C111.702 250.452 113.631 254.65 117.302 257.349C119.667 259.085 122.461 260.003 125.387 260.003C128.764 260.003 132.01 258.737 134.491 256.53L135.438 257.223C137.863 259.006 140.735 259.948 143.742 259.948C147.895 259.948 151.752 258.125 154.325 254.945C156.477 252.287 157.536 249.026 157.363 245.654L159.915 247.532C162.28 249.27 165.075 250.186 168.006 250.186C172.341 250.186 176.461 248.1 179.03 244.611C180.929 242.023 181.84 238.924 181.663 235.765L183.207 236.899C185.572 238.635 188.366 239.553 191.297 239.553C195.632 239.553 199.753 237.467 202.321 233.977C204.149 231.486 205.065 228.513 204.97 225.47C206.848 226.408 208.91 226.893 211.046 226.893C215.381 226.893 219.501 224.807 222.069 221.318C224.231 218.37 225.117 214.766 224.565 211.156C224.013 207.545 222.089 204.365 219.143 202.203L177.763 171.918L173.617 168.881L169.464 165.843H166.112C163.54 165.843 160.896 165.235 158.542 163.883C154.38 161.513 151.115 156.85 150.715 149.193C150.684 148.59 150.189 148.121 149.585 148.121H118.247C117.219 148.121 116.388 148.951 116.388 149.979V156.561C116.388 160.319 114.864 163.716 112.404 166.177C109.943 168.637 106.546 170.162 102.788 170.162C102.353 170.162 101.953 169.984 101.664 169.695C101.375 169.407 101.198 169.011 101.198 168.571V150.621C101.198 149.608 101.623 148.642 102.367 147.958L117.563 134.033C117.958 133.673 118.413 133.39 118.91 133.202C119.381 133.025 119.888 132.93 120.404 132.93H184.22L198.954 154.338L201.126 157.497L203.297 160.651L222.158 188.055C224.33 191.22 227.91 192.972 231.565 192.972C233.267 192.972 234.984 192.593 236.583 191.798L270.559 174.935C272.204 174.116 272.756 172.039 271.729 170.515L271.737 170.513ZM78.6355 212.651C77.2174 214.576 75.0297 215.594 72.8179 215.594C71.3336 215.594 69.8349 215.137 68.5539 214.197L67.9312 213.742C64.7256 211.386 64.0318 206.871 66.3921 203.66C67.8054 201.736 69.993 200.718 72.2097 200.718C73.6939 200.718 75.1862 201.174 76.4736 202.119L77.0915 202.57C80.302 204.93 80.9909 209.441 78.6355 212.651ZM96.0737 225.001C94.5846 227.026 92.2856 228.1 89.9463 228.1C88.3863 228.1 86.8117 227.624 85.4549 226.627C82.0783 224.146 81.349 219.392 83.8351 216.008L90.1286 207.44C91.6177 205.415 93.9215 204.341 96.256 204.341C97.816 204.341 99.3906 204.817 100.747 205.814C102.772 207.303 103.847 209.607 103.847 211.941C103.847 213.501 103.366 215.076 102.374 216.433L96.0753 224.999L96.0737 225.001ZM115.816 234.915L113.796 237.659C113.23 238.428 112.545 239.061 111.786 239.548C110.55 240.348 109.117 240.758 107.668 240.758C106.108 240.758 104.534 240.282 103.177 239.285C99.8004 236.804 99.0712 232.049 101.557 228.666L111.061 215.729C112.55 213.705 114.854 212.63 117.189 212.63C118.749 212.63 120.323 213.111 121.68 214.103C122.601 214.782 123.326 215.628 123.842 216.568C124.921 218.538 125.087 220.918 124.237 223.039C124.005 223.622 123.695 224.188 123.305 224.72L115.816 234.913V234.915ZM132.212 249.888L131.518 250.825C130.029 252.85 127.73 253.924 125.391 253.924C123.831 253.924 122.256 253.448 120.899 252.451C117.523 249.97 116.793 245.216 119.279 241.833L119.968 240.895C121.457 238.871 123.761 237.796 126.096 237.796C127.656 237.796 129.23 238.272 130.587 239.269C133.964 241.75 134.693 246.505 132.212 249.888ZM98.271 143.474C96.2705 145.307 95.1267 147.909 95.1267 150.618V168.568C95.1267 172.796 98.5646 176.234 102.793 176.234C108.049 176.234 112.991 174.188 116.708 170.471C120.425 166.749 122.471 161.813 122.471 156.557V154.191H145.236C146.401 159.943 149.109 164.223 152.593 167.124C154.324 168.568 156.248 169.676 158.268 170.455C160.795 171.438 163.468 171.914 166.117 171.914H167.483L215.552 207.095C218.935 209.581 219.658 214.335 217.176 217.714C215.687 219.738 213.383 220.813 211.049 220.813C209.484 220.813 207.91 220.337 206.558 219.34L171.868 193.856C171.271 193.416 170.578 193.208 169.889 193.208C168.856 193.208 167.838 193.679 167.185 194.574C166.086 196.063 166.41 198.164 167.898 199.257L195.803 219.755C199.186 222.241 199.909 226.995 197.428 230.373C195.939 232.398 193.635 233.472 191.301 233.472C189.736 233.472 188.161 232.997 186.809 231.999L159.091 211.64C158.454 211.168 157.708 210.941 156.974 210.941C155.871 210.941 154.782 211.448 154.083 212.404C152.909 214 153.252 216.242 154.848 217.417L172.509 230.389C175.892 232.876 176.615 237.63 174.133 241.008C172.644 243.033 170.34 244.107 168.006 244.107C166.441 244.107 164.867 243.631 163.515 242.634L145.828 229.641C145.196 229.175 144.455 228.952 143.726 228.952C142.632 228.952 141.554 229.454 140.861 230.401C140.394 231.038 140.167 231.774 140.167 232.508C140.167 233.601 140.673 234.679 141.62 235.375L148.203 240.21C151.681 242.767 152.349 247.729 149.6 251.122C148.127 252.945 145.949 253.871 143.742 253.871C142.101 253.871 140.441 253.36 139.038 252.327L138.207 251.714C141.275 245.84 139.684 238.422 134.177 234.377C131.816 232.64 129.017 231.724 126.091 231.724C125.954 231.724 125.823 231.728 125.691 231.733L128.198 228.321C130.542 225.132 131.292 221.247 130.598 217.638C130.163 215.379 129.161 213.227 127.627 211.415C126.947 210.605 126.163 209.867 125.273 209.213C122.913 207.477 120.114 206.559 117.187 206.559C114.448 206.559 111.794 207.395 109.566 208.889C108.857 205.799 107.089 202.939 104.34 200.924C101.98 199.188 99.1809 198.27 96.2544 198.27C91.9452 198.27 87.849 200.33 85.2774 203.784C84.4111 201.419 82.8623 199.278 80.6844 197.678L80.0665 197.228C77.7723 195.537 75.0539 194.645 72.2081 194.645C69.3622 194.645 66.355 195.663 64.0464 197.455L53.0581 184.838L91.5564 128.906L111.213 131.615L98.271 143.479V143.474Z" fill="#1E3AE5"/>
<path d="M39.9646 178.285C38.3545 177.185 37.9383 174.968 39.037 173.359L39.2435 173.056C40.3437 171.446 42.5604 171.03 44.1689 172.129C45.779 173.229 46.1952 175.445 45.0965 177.054L44.89 177.357C43.7897 178.967 41.5731 179.384 39.9646 178.285Z" fill="#1E3AE5"/>
<path d="M46.5469 169.171C44.9368 168.071 44.5206 165.854 45.6192 164.246L45.8257 163.942C46.926 162.332 49.1427 161.916 50.7511 163.015C52.3612 164.115 52.7775 166.332 51.6788 167.94L51.4723 168.243C50.372 169.854 48.1553 170.27 46.5469 169.171Z" fill="#1E3AE5"/>
<path d="M233.037 178.285C234.647 177.185 235.063 174.968 233.964 173.359L233.758 173.056C232.658 171.446 230.441 171.03 228.832 172.129C227.222 173.229 226.806 175.445 227.905 177.054L228.111 177.357C229.212 178.967 231.428 179.384 233.037 178.285Z" fill="#1E3AE5"/>
<path d="M226.454 169.171C228.064 168.071 228.481 165.854 227.382 164.246L227.176 163.942C226.075 162.332 223.859 161.916 222.25 163.015C220.64 164.115 220.224 166.332 221.322 167.94L221.529 168.243C222.629 169.854 224.846 170.27 226.454 169.171Z" fill="#1E3AE5"/>
<path d="M169.616 54.5087C168.405 53.3681 166.473 53.4875 165.296 54.6636L134.495 85.4648L117.111 68.0814C115.935 66.9053 114.002 66.786 112.792 67.9266C111.539 69.1075 111.516 71.079 112.726 72.2873L132.221 91.7825C132.263 91.8244 132.312 91.868 132.363 91.9116C133.581 92.9408 135.411 92.9408 136.629 91.9116C136.681 91.868 136.729 91.8244 136.771 91.7825L169.684 58.8695C170.892 57.6611 170.87 55.688 169.618 54.5087H169.616Z" fill="#1E3AE5"/>
</g>
<defs>
<clipPath id="clip0_2_20006">
<rect width="271.513" height="260" fill="white" transform="translate(0.743652)"/>
</clipPath>
</defs>
</svg>
